<svg width="620" height="620" viewBox="0 0 620 620" fill="none" xmlns="http://www.w3.org/2000/svg">
<rect x="301.935" y="162.516" width="16.129" height="161.29" rx="8.06452" fill="black"/>
<rect x="301.935" y="339.935" width="16.129" height="193.548" rx="8.06452" fill="black"/>
<rect x="108.387" y="339.935" width="80.6452" height="16.129" rx="8.06452" fill="black"/>
<rect x="430.968" y="339.935" width="80.6452" height="16.129" rx="8.06452" fill="black"/>
<rect x="205.161" y="339.935" width="80.6452" height="16.129" rx="8.06452" fill="black"/>
<rect x="301.935" y="339.935" width="96.7742" height="16.129" rx="8.06452" fill="black"/>
<rect x="560" y="98" width="12.1951" height="109.756" rx="6.09756" transform="rotate(90 560 98)" fill="#BC0017"/>
<rect x="560" y="98" width="109.756" height="12.1951" rx="6.09756" transform="rotate(90 560 98)" fill="#BC0017"/>
<rect x="60" y="598" width="12.1951" height="109.756" rx="6.09756" transform="rotate(-90 60 598)" fill="#BC0017"/>
<rect x="60" y="598" width="109.756" height="12.1951" rx="6.09756" transform="rotate(-90 60 598)" fill="#BC0017"/>
<rect x="560" y="598" width="12.1951" height="109.756" rx="6.09756" transform="rotate(180 560 598)" fill="#BC0017"/>
<rect x="560" y="598" width="109.756" height="12.1951" rx="6.09756" transform="rotate(180 560 598)" fill="#BC0017"/>
<path d="M386.005 446.423H496.828V526.003H348.894V503.309H472.111V468.916H348.894V377.698H497.128V400.602H386.005V446.423ZM509.312 411.941V366.293H336.572V479.96H459.807V491.104H336.572V537.024H509.156V446.423L509.18 434.74H398.201V411.941H509.312Z" fill="black"/>
<path d="M160.064 479.774V526.068H122.906V377.676H271.087V479.774H160.064ZM282.706 366.293H110.687V537.024H172.969V491.945H283.427V366.293H282.706Z" fill="black"/>
<path d="M497.018 204.431H385.839V249.808H472.333V283.937H385.839V317.949H348.914V170.169H497.018V204.431ZM336.572 158.976V329.707H398.302V295.236H484.783V238.764H398.428V215.696H509.312V158.976H336.572Z" fill="black"/>
<path d="M271.093 318.162H122.906V171.313H159.625V284.07H234.007V170.454H271.093V318.162ZM221.685 158.976V272.68H172.963V158.976H110.687V329.707H283.427V158.976H221.685Z" fill="black"/>
<path d="M211.643 441.904H171.236V412.485H211.643V441.904ZM160.169 402.878V451.658H221.862V402.878H160.169Z" fill="black"/>
<path d="M72.9049 203.208C72.9049 188.885 72.6399 176.601 72.3971 166.106C72.1533 155.57 71.9356 146.952 72.0182 139.793C72.1012 132.602 72.4878 127.246 73.3434 123.18C74.1875 119.168 75.401 116.844 76.8336 115.324C78.2447 113.828 80.3878 112.562 84.1393 111.645C87.9742 110.707 93.0915 110.228 100.057 110.066C114.266 109.737 133.493 110.708 162.032 110.708C165.346 110.708 168.032 108.022 168.032 104.708C168.032 101.394 165.345 98.708 162.032 98.708C134.571 98.708 113.907 97.7421 99.7789 98.0693C92.5767 98.2361 86.4139 98.7338 81.2887 99.9873C76.0802 101.261 71.5819 103.402 68.1022 107.093C64.6442 110.761 62.7163 115.405 61.6002 120.709C60.4956 125.959 60.1034 132.268 60.0182 139.655C59.9326 147.074 60.1586 155.948 60.4 166.384C60.6424 176.862 60.9049 189.031 60.9049 203.208C60.9049 206.522 63.5912 209.208 66.9049 209.208C70.2184 209.208 72.9049 206.522 72.9049 203.208Z" fill="#BC0017"/>
<path d="M144 50C144 33.4315 130.569 20 114 20C97.4315 20 84.0001 33.4315 84.0001 50C84.0001 66.5685 97.4315 80 114 80C130.569 80 144 66.5685 144 50ZM154 50C154 72.0914 136.091 90 114 90C91.9087 90 74.0001 72.0914 74.0001 50C74.0001 27.9086 91.9087 10 114 10C136.091 10 154 27.9086 154 50Z" fill="#BC0017"/>
</svg>
